<?xml version="1.0" encoding="utf-8"?>
<!-- Generator: Adobe Illustrator 26.3.1, SVG Export Plug-In . SVG Version: 6.00 Build 0)  -->
<svg version="1.1" id="Capa_1" xmlns="http://www.w3.org/2000/svg" xmlns:xlink="http://www.w3.org/1999/xlink" x="0px" y="0px"
	 viewBox="0 0 360 130" style="enable-background:new 0 0 360 130;" xml:space="preserve">
<style type="text/css">
	.st0{fill:none;}
	.st1{fill:#212121;}
	.st2{fill:#F8B233;}
	.st3{fill:#999999;}
	.st4{fill:#E8A21F;}
	.st5{fill:url(#SVGID_1_);}
</style>
<g>
	<g>
		<line class="st0" x1="49.23" y1="67.48" x2="345.92" y2="67.48"/>
		<g>
			<rect x="100.41" y="53.31" class="st1" width="5.41" height="28.38"/>
			<polygon class="st1" points="157.85,53.31 136.23,53.31 136.23,58.71 144.33,58.71 144.33,81.69 149.74,81.69 149.74,58.71 
				157.85,58.71 			"/>
			<path class="st1" d="M174,81.69h5.47l-8.78-28.38h-4.05l-8.78,28.38h5.47l1.46-4.73h7.75L174,81.69z M168.66,64.43l2.2,7.12
				h-4.41L168.66,64.43z"/>
			<polygon class="st1" points="199.74,53.31 199.74,70.54 188.26,53.31 183.53,53.31 183.53,81.69 188.93,81.69 188.93,64.46 
				200.42,81.69 205.15,81.69 205.15,79.66 205.15,53.31 			"/>
			<polygon class="st1" points="134.2,53.31 127.44,53.31 119.78,64.8 116.63,64.8 116.63,53.31 111.22,53.31 111.22,81.69 
				116.63,81.69 116.63,70.2 119.78,70.2 127.44,81.69 134.2,81.69 124.74,67.5 			"/>
		</g>
		<g>
			<path class="st2" d="M238.16,56.83h-21.25v-2.96h21.25V56.83z M229.34,81.36h-3.63v-27.5h3.63V81.36z"/>
			<path class="st2" d="M243.01,81.36h-3.53V60.93h3.44l0.09,3.21V81.36z M249.38,64.04c-0.3-0.06-0.58-0.1-0.84-0.12
				c-0.26-0.02-0.55-0.03-0.88-0.03c-1.07,0-1.97,0.22-2.71,0.66c-0.74,0.44-1.31,1.05-1.71,1.82s-0.65,1.66-0.75,2.65l-1,0.57
				c0-1.65,0.22-3.16,0.66-4.52c0.44-1.37,1.13-2.46,2.07-3.29c0.94-0.83,2.14-1.24,3.62-1.24c0.24,0,0.53,0.03,0.86,0.08
				c0.33,0.06,0.56,0.12,0.69,0.18V64.04z"/>
			<path class="st2" d="M263.73,71.43h-3.51c-1.99,0-3.53,0.31-4.61,0.94c-1.08,0.63-1.62,1.57-1.62,2.83
				c0,0.98,0.33,1.81,0.99,2.49c0.66,0.68,1.63,1.02,2.9,1.02c1.07,0,2.01-0.23,2.83-0.68c0.82-0.45,1.47-1.01,1.95-1.68
				c0.48-0.67,0.74-1.31,0.77-1.93l1.51,1.68c-0.09,0.53-0.33,1.11-0.72,1.76c-0.39,0.64-0.91,1.26-1.56,1.84
				c-0.65,0.59-1.42,1.07-2.3,1.46c-0.89,0.38-1.89,0.58-2.99,0.58c-1.38,0-2.6-0.27-3.64-0.8c-1.04-0.54-1.84-1.26-2.42-2.18
				c-0.57-0.92-0.86-1.94-0.86-3.06c0-2.2,0.83-3.88,2.49-5.01s3.9-1.71,6.71-1.71h4.04L263.73,71.43z M263.09,67.35
				c0-1.22-0.36-2.19-1.09-2.92c-0.72-0.72-1.79-1.09-3.2-1.09c-0.87,0-1.63,0.15-2.29,0.45c-0.66,0.3-1.17,0.7-1.54,1.19
				s-0.55,1.03-0.55,1.61h-3.53c0-0.98,0.33-1.94,1-2.86c0.67-0.93,1.61-1.69,2.82-2.29c1.21-0.6,2.65-0.9,4.3-0.9
				c1.49,0,2.8,0.25,3.95,0.75c1.15,0.5,2.04,1.26,2.69,2.28c0.65,1.01,0.97,2.28,0.97,3.81v9.52c0,0.68,0.06,1.4,0.18,2.17
				c0.12,0.77,0.3,1.43,0.54,1.98v0.3h-3.68c-0.18-0.4-0.31-0.94-0.42-1.62c-0.1-0.67-0.15-1.3-0.15-1.88V67.35z"/>
			<path class="st2" d="M271.17,55.49c0-0.55,0.17-1.03,0.52-1.42c0.35-0.39,0.86-0.58,1.54-0.58c0.68,0,1.2,0.2,1.56,0.58
				c0.36,0.39,0.54,0.86,0.54,1.42c0,0.54-0.18,1-0.54,1.39c-0.36,0.38-0.88,0.58-1.56,0.58c-0.68,0-1.19-0.19-1.54-0.58
				S271.17,56.03,271.17,55.49z M274.97,81.36h-3.53V60.93h3.53V81.36z"/>
			<path class="st2" d="M283.1,81.36h-3.53V60.93h3.34l0.19,4.36V81.36z M280.8,70.29c0.03-1.86,0.38-3.53,1.08-5
				c0.69-1.47,1.66-2.62,2.9-3.48c1.24-0.85,2.69-1.27,4.34-1.27c1.35,0,2.51,0.25,3.48,0.75s1.73,1.29,2.27,2.37s0.8,2.52,0.8,4.31
				v13.39h-3.53V67.93c0-1.07-0.15-1.93-0.46-2.59c-0.31-0.66-0.76-1.13-1.37-1.43c-0.6-0.29-1.35-0.44-2.23-0.44
				c-0.87,0-1.66,0.18-2.36,0.55s-1.32,0.87-1.83,1.51c-0.52,0.64-0.91,1.38-1.19,2.2c-0.28,0.83-0.42,1.7-0.42,2.62L280.8,70.29z"
				/>
			<path class="st2" d="M300.01,55.49c0-0.55,0.17-1.03,0.52-1.42c0.35-0.39,0.86-0.58,1.54-0.58s1.2,0.2,1.56,0.58
				c0.36,0.39,0.54,0.86,0.54,1.42c0,0.54-0.18,1-0.54,1.39c-0.36,0.38-0.88,0.58-1.56,0.58s-1.19-0.19-1.54-0.58
				C300.18,56.49,300.01,56.03,300.01,55.49z M303.8,81.36h-3.53V60.93h3.53V81.36z"/>
			<path class="st2" d="M311.94,81.36h-3.53V60.93h3.34l0.19,4.36V81.36z M309.63,70.29c0.03-1.86,0.38-3.53,1.08-5
				c0.69-1.47,1.66-2.62,2.9-3.48c1.24-0.85,2.68-1.27,4.33-1.27c1.35,0,2.51,0.25,3.48,0.75s1.73,1.29,2.27,2.37s0.8,2.52,0.8,4.31
				v13.39h-3.53V67.93c0-1.07-0.15-1.93-0.46-2.59c-0.31-0.66-0.76-1.13-1.37-1.43c-0.6-0.29-1.35-0.44-2.23-0.44
				c-0.87,0-1.66,0.18-2.36,0.55s-1.32,0.87-1.83,1.51c-0.52,0.64-0.91,1.38-1.19,2.2c-0.28,0.83-0.42,1.7-0.42,2.62L309.63,70.29z"
				/>
			<path class="st2" d="M327.97,70.98c0-2.08,0.33-3.9,0.98-5.47c0.65-1.57,1.59-2.79,2.79-3.66c1.21-0.87,2.64-1.3,4.31-1.3
				c1.28,0,2.41,0.22,3.37,0.67c0.96,0.45,1.78,1.09,2.46,1.94s1.21,1.86,1.61,3.06c0.4,1.2,0.67,2.54,0.82,4.04v1.83
				c-0.19,1.98-0.61,3.69-1.26,5.13c-0.65,1.44-1.55,2.56-2.71,3.34c-1.16,0.79-2.6,1.18-4.33,1.18c-1.64,0-3.06-0.45-4.26-1.35
				c-1.2-0.9-2.13-2.13-2.8-3.69c-0.66-1.56-0.99-3.34-0.99-5.33V70.98z M345.25,60.93v20c0,1.8-0.37,3.34-1.11,4.61
				c-0.74,1.27-1.76,2.24-3.06,2.9c-1.3,0.66-2.8,0.99-4.5,0.99c-0.71,0-1.53-0.11-2.48-0.33c-0.95-0.22-1.88-0.59-2.79-1.11
				c-0.91-0.52-1.68-1.22-2.29-2.11l1.83-2.06c0.86,1.03,1.75,1.75,2.69,2.16s1.87,0.61,2.79,0.61c1.65,0,2.96-0.47,3.94-1.41
				c0.98-0.94,1.46-2.3,1.46-4.09V65.42l0.32-4.5H345.25z M331.5,71.37c0,1.36,0.19,2.6,0.56,3.72c0.37,1.12,0.95,2.02,1.75,2.69
				c0.79,0.67,1.82,1.01,3.08,1.01c1.16,0,2.11-0.25,2.85-0.74s1.34-1.14,1.79-1.95c0.45-0.81,0.81-1.68,1.06-2.63V68.9
				c-0.15-0.69-0.37-1.36-0.64-2.01c-0.28-0.65-0.64-1.23-1.1-1.74c-0.45-0.51-1-0.92-1.65-1.22c-0.65-0.3-1.41-0.45-2.28-0.45
				c-1.27,0-2.31,0.34-3.11,1.02c-0.8,0.68-1.38,1.59-1.76,2.73c-0.37,1.14-0.56,2.39-0.56,3.75V71.37z"/>
		</g>
	</g>
	<rect x="14.27" y="10.79" class="st0" width="330.99" height="113.39"/>
	<g>
		<path class="st3" d="M79.52,90.68c-2.52-1.98-6.74-3.67-12.06-4.85c0,0-0.01,0-0.01,0c-4.84,4.42-11.31,7.13-18.41,7.13
			c-7.11,0-13.57-2.71-18.41-7.13c0,0-0.01,0-0.01,0c-5.32,1.19-9.54,2.87-12.06,4.85c-1.67,1.31-2.59,2.75-2.59,4.26
			c0,0.08,0,0.16,0.01,0.24c0,0.02,0,0.03,0,0.05c0.02,0.29,0.08,0.57,0.17,0.86c0.04,0.1,0.07,0.21,0.11,0.31
			c4.94,13.32,17.75,22.8,32.78,22.8c15.03,0,27.84-9.49,32.78-22.8c0.04-0.1,0.29-0.72,0.29-1.46C82.11,93.44,81.19,92,79.52,90.68
			z"/>
		<path class="st2" d="M72.49,52.49L49.04,5.82L25.59,52.49c-0.62,1.05-1.17,2.15-1.65,3.28l0,0l0,0
			c-1.33,3.17-2.06,6.65-2.06,10.29c0,14.85,12.16,26.9,27.16,26.9c15,0,27.16-12.04,27.16-26.9C76.2,61.12,74.85,56.48,72.49,52.49
			z"/>
		<path class="st4" d="M67.46,85.83c-5.26-1.17-11.6-1.86-18.42-1.86s-13.16,0.69-18.42,1.86c4.84,4.43,11.31,7.14,18.42,7.14
			S62.62,90.26,67.46,85.83z"/>
		<linearGradient id="SVGID_1_" gradientUnits="userSpaceOnUse" x1="-62.2579" y1="-41.5438" x2="52.8859" y2="73.6001">
			<stop  offset="0" style="stop-color:#FFFFFF"/>
			<stop  offset="1" style="stop-color:#F8B233"/>
		</linearGradient>
		<path class="st5" d="M16.73,70.82c-1.85,4.07-2.65,8.65-2.65,13.39c0,19.33,15.65,35,34.96,35V5.82
			C49.04,5.82,24.25,54.3,16.73,70.82z"/>
	</g>
</g>
</svg>
